<?xml version="1.0" encoding="UTF-8" standalone="no"?>
<svg
   xmlns:dc="http://purl.org/dc/elements/1.1/"
   xmlns:cc="http://creativecommons.org/ns#"
   xmlns:rdf="http://www.w3.org/1999/02/22-rdf-syntax-ns#"
   xmlns:svg="http://www.w3.org/2000/svg"
   xmlns="http://www.w3.org/2000/svg"
   xmlns:sodipodi="http://sodipodi.sourceforge.net/DTD/sodipodi-0.dtd"
   xmlns:inkscape="http://www.inkscape.org/namespaces/inkscape"
   sodipodi:docname="alpaca.svg"
   inkscape:version="1.0 (4035a4fb49, 2020-05-01)"
   id="svg8"
   version="1.1"
   viewBox="0 0 101.20631 101.11916"
   height="101.11916mm"
   width="101.20631mm">
  <defs
     id="defs2" />
  <sodipodi:namedview
     inkscape:window-maximized="1"
     inkscape:window-y="1072"
     inkscape:window-x="113"
     inkscape:window-height="1058"
     inkscape:window-width="1799"
     showgrid="false"
     inkscape:document-rotation="0"
     inkscape:current-layer="layer1"
     inkscape:document-units="mm"
     inkscape:cy="280.07873"
     inkscape:cx="83.92379"
     inkscape:zoom="0.98994949"
     inkscape:pageshadow="2"
     inkscape:pageopacity="0.0"
     borderopacity="1.0"
     bordercolor="#666666"
     pagecolor="#ffffff"
     id="base" />
  <metadata
     id="metadata5">
    <rdf:RDF>
      <cc:Work
         rdf:about="">
        <dc:format>image/svg+xml</dc:format>
        <dc:type
           rdf:resource="http://purl.org/dc/dcmitype/StillImage" />
        <dc:title></dc:title>
      </cc:Work>
    </rdf:RDF>
  </metadata>
  <g
     transform="translate(-2.3273332,-3.0123195)"
     id="layer1"
     inkscape:groupmode="layer"
     inkscape:label="Layer 1">
    <ellipse
       ry="49.444862"
       rx="49.712132"
       cy="53.686085"
       cx="53.10854"
       id="path43"
       style="fill:#ffffff;stroke-width:0.272479" />
    <path
       d="m 51.463011,5.3135668 c -1.802694,0.00907 -3.368917,0.061309 -4.041759,0.1637619 -0.701558,0.1068282 -1.50497,0.222392 -1.785594,0.2564958 -1.208092,0.1468194 -2.195,0.3220899 -2.528442,0.4488645 -0.197093,0.074939 -0.551881,0.1361383 -0.788719,0.1361383 -0.236839,0 -0.461807,0.050408 -0.500164,0.1124646 -0.03836,0.062063 -0.337544,0.1532184 -0.664419,0.2022356 -0.326876,0.049024 -0.686124,0.1348335 -0.798585,0.1908911 -0.256261,0.1277415 -1.219066,0.386616 -1.76833,0.4755002 -0.228657,0.036997 -0.447291,0.118625 -0.48586,0.1810272 -0.03856,0.062406 -0.166965,0.1134373 -0.285596,0.1139421 -0.118633,4.315e-4 -0.380111,0.086583 -0.581059,0.1913837 -0.200947,0.1048017 -0.44331,0.1908912 -0.538145,0.1908912 -0.09483,0 -0.389582,0.093685 -0.655047,0.2086469 -0.265463,0.1149578 -0.626154,0.2640575 -0.801544,0.3309775 -0.175391,0.066921 -0.481097,0.2021448 -0.679711,0.3008863 -0.198615,0.098743 -0.420784,0.1795468 -0.49375,0.1795468 -0.20145,0 -4.265131,2.0222995 -5.174774,2.5753015 -0.439711,0.267313 -0.855447,0.486353 -0.924366,0.486353 -0.06892,0 -0.125288,0.04685 -0.125288,0.10457 0,0.05772 -0.244423,0.232311 -0.542584,0.387702 -0.737827,0.384525 -0.983378,0.543191 -1.362872,0.878986 -0.178392,0.15785 -0.383194,0.286583 -0.454783,0.286583 -0.07158,0 -0.272714,0.130062 -0.447387,0.288555 -0.174672,0.158497 -0.478644,0.391261 -0.675268,0.517428 -0.374014,0.23999 -2.59463,2.018247 -3.463662,2.773592 -0.897288,0.779904 -3.688552,3.60233 -4.470891,4.520711 -0.418346,0.491091 -0.792761,0.921352 -0.832129,0.956429 -0.03937,0.03508 -0.354696,0.436784 -0.700424,0.892798 -0.34573,0.45601 -0.72959,0.939668 -0.853338,1.07481 -0.123749,0.135138 -0.258304,0.350515 -0.298913,0.47846 -0.0406,0.127943 -0.127437,0.232817 -0.192864,0.232817 -0.06544,0 -0.118878,0.08114 -0.118878,0.180534 0,0.09939 -0.04593,0.199566 -0.102102,0.222951 -0.108585,0.0452 -1.179732,1.66351 -2.012001,3.039952 -0.275591,0.455786 -0.570598,0.943641 -0.65554,1.084181 -0.08494,0.140541 -0.189375,0.341658 -0.232326,0.446892 -0.04295,0.105235 -0.131535,0.291145 -0.196809,0.413351 -0.6832609,1.279181 -1.6589765,3.355487 -2.0238401,4.306144 -0.1480917,0.385859 -0.3209817,0.816609 -0.3837543,0.956921 -0.062769,0.140312 -0.2104081,0.542018 -0.32851,0.892798 -0.1181038,0.350779 -0.2575209,0.752485 -0.3097652,0.892796 -0.3660233,0.983038 -0.5307407,1.518032 -0.8123974,2.636467 -0.082461,0.327444 -0.1930732,0.63799 -0.2456412,0.69056 -0.052574,0.05256 -0.095693,0.25466 -0.095693,0.448865 0,0.19421 -0.063141,0.514771 -0.1400863,0.712267 -0.076943,0.197495 -0.1895824,0.646093 -0.250573,0.996873 -0.060993,0.35078 -0.2018775,1.12564 -0.3132206,1.721964 -0.111341,0.596325 -0.2528973,1.579722 -0.3142056,2.185137 -0.061309,0.605416 -0.1728365,1.43365 -0.2481085,1.840839 -0.173814,0.940204 -0.180842,8.061956 -0.00887,8.993083 0.070405,0.381204 0.1824342,1.152336 0.2490963,1.71358 0.106979,0.900727 0.268474,1.90538 0.6254505,3.890328 0.056774,0.315705 0.1746424,0.832602 0.2619202,1.148308 0.087281,0.315695 0.209047,0.774511 0.2703057,1.020049 0.2831973,1.135146 0.5421118,2.012333 0.7078268,2.396258 0.099443,0.230381 0.1810262,0.503887 0.1810262,0.607691 0,0.103802 0.05247,0.288567 0.1164076,0.410392 0.063933,0.121825 0.2124107,0.508479 0.3304839,0.859253 0.1180713,0.350783 0.2954972,0.818227 0.3941117,1.039293 0.098616,0.221075 0.1795468,0.440002 0.1795468,0.486353 0,0.07894 0.1967175,0.525259 0.9870094,2.23693 0.7771464,1.683197 1.8889971,3.79983 2.1496191,4.092073 0.09878,0.110752 0.179546,0.247076 0.179546,0.302858 0,0.05574 0.2299,0.444936 0.510522,0.86517 0.280624,0.420243 0.51003,0.785469 0.51003,0.811413 0,0.04744 1.301443,1.911526 1.51085,2.163928 0.06178,0.07445 0.365076,0.476159 0.673791,0.892794 0.60335,0.814267 0.672872,0.900192 1.83344,2.26652 1.407729,1.657312 4.909605,5.01777 6.505089,6.242181 0.531003,0.40751 1.228699,0.910338 1.658335,1.195662 0.280621,0.186358 0.539074,0.376469 0.574153,0.422228 0.134805,0.17586 2.779016,1.862532 4.01808,2.562973 0.827782,0.467949 3.262449,1.691835 4.01907,2.020388 1.850515,0.803533 4.442036,1.786475 5.419921,2.055899 0.210465,0.05799 0.698323,0.200217 1.084181,0.315687 0.385856,0.11548 0.931312,0.26035 1.211936,0.3221 0.654398,0.144 1.661755,0.37343 2.231994,0.50805 1.005182,0.23729 2.0396,0.41399 3.125284,0.53469 0.631404,0.0703 1.463861,0.17181 1.84972,0.22542 1.545517,0.21474 1.899011,0.12033 1.404306,-0.37438 -0.672505,-0.67251 -1.661353,-2.611558 -2.08155,-4.082705 -0.893529,-3.128283 -0.853338,-1.959548 -0.853338,-25.038776 V 51.473662 h -1.796938 c -1.782625,0 -2.918125,-0.173074 -3.898714,-0.593389 -0.22107,-0.09475 -0.464997,-0.172146 -0.542089,-0.172146 -0.07709,0 -0.140087,-0.05711 -0.140087,-0.127263 0,-0.07015 -0.108002,-0.127754 -0.239724,-0.127754 -0.131721,0 -0.310723,-0.08615 -0.398058,-0.191384 -0.08734,-0.105234 -0.217664,-0.191383 -0.289545,-0.191383 -0.154128,0 -1.141068,-0.777568 -1.690888,-1.33229 -0.726352,-0.73283 -1.514818,-2.004715 -1.980926,-3.195821 -0.231442,-0.591438 -0.496765,-1.9784 -0.546036,-2.853993 -0.05961,-1.059348 0.104034,-1.361285 0.814862,-1.503451 0.209736,-0.04194 0.412093,-0.12634 0.449852,-0.187437 0.03776,-0.0611 0.156849,-0.110985 0.26488,-0.110985 0.10803,0 0.377251,-0.07841 0.598322,-0.17412 0.221068,-0.0957 0.660458,-0.27363 0.976159,-0.395593 0.3157,-0.121967 0.673803,-0.273449 0.795625,-0.336402 0.121821,-0.06296 0.3242,-0.114435 0.449852,-0.114435 0.125655,0 0.341559,-0.07497 0.47994,-0.166722 0.138384,-0.09174 0.585689,-0.276984 0.993914,-0.41187 0.868674,-0.287029 1.049655,-0.451158 0.862709,-0.782307 -0.515443,-0.913027 -0.714526,-2.852971 -0.380302,-3.703385 0.507019,-1.290084 1.012047,-2.082659 1.900524,-2.981746 1.000465,-1.012412 1.922167,-1.775729 2.144194,-1.775729 0.07175,0 0.149748,-0.04798 0.173133,-0.106543 0.05599,-0.140202 2.3233,-1.22799 2.976321,-1.427984 0.280621,-0.08595 0.653777,-0.214959 0.829167,-0.286581 0.418376,-0.170843 1.282462,-0.346195 2.231993,-0.452812 l 0.765537,-0.08583 -0.04044,-0.500657 c -0.0221,-0.275271 -0.122279,-0.617855 -0.222955,-0.761591 -0.100678,-0.143736 -0.182996,-0.364151 -0.182996,-0.489806 -2e-6,-0.125653 -0.05038,-0.32803 -0.111969,-0.449851 -0.26028,-0.514806 -0.525817,-1.198928 -0.525817,-1.354488 0,-0.09207 -0.09028,-0.347789 -0.20026,-0.568233 -0.10997,-0.220442 -0.181597,-0.558981 -0.159322,-0.752713 0.03898,-0.338978 0.07135,-0.35364 0.856787,-0.390658 0.454948,-0.02144 0.875246,0.02042 0.950016,0.0952 0.07377,0.07377 0.258415,0.134166 0.409898,0.134166 0.31569,0 1.565388,0.634418 2.224594,1.129066 0.245544,0.18425 0.771899,0.661742 1.169515,1.061494 0.542173,0.54509 0.741396,0.67888 0.797105,0.533705 0.04086,-0.106469 0.07448,-1.279647 0.07448,-2.606869 v -2.41302 h 0.370438 c 0.587329,0 1.667447,0.632564 2.501313,1.46547 0.996161,0.995014 1.228622,1.313902 1.757479,2.409072 0.681872,1.412046 0.85531,1.850648 0.85531,2.16294 0,0.158979 0.05434,0.343743 0.120849,0.410391 0.150516,0.150839 0.395228,1.398301 0.475992,2.427324 0.05565,0.709011 0.09574,0.795622 0.465637,1.010685 0.222548,0.129388 0.433026,0.271065 0.468103,0.314697 0.03508,0.04363 0.435529,0.362449 0.889343,0.70832 0.948759,0.723092 2.299571,2.088506 2.299571,2.324232 0,0.08799 0.04644,0.16031 0.10309,0.16031 0.124935,0 0.917461,1.104807 0.917461,1.279018 0,0.0681 0.05078,0.123809 0.112464,0.123809 0.132189,0 1.54587,2.821077 1.54587,3.084836 0,0.09927 0.04985,0.235224 0.110984,0.301874 0.06113,0.06664 0.210934,0.465448 0.332455,0.886386 0.121519,0.420934 0.27894,0.93784 0.350214,1.148307 0.07127,0.210466 0.178787,0.612172 0.238736,0.892796 0.05996,0.28062 0.201303,0.940783 0.314208,1.466949 0.112905,0.526168 0.247666,1.361629 0.299406,1.856626 0.05173,0.494997 0.135025,0.965877 0.184971,1.046693 0.04995,0.08082 0.142253,0.708929 0.205196,1.39592 0.193056,2.107074 0.381459,3.647138 0.514963,4.207494 0.07008,0.294154 0.128944,0.868158 0.130712,1.275566 0.0018,0.407407 0.06139,0.993868 0.132689,1.303189 0.0713,0.309321 0.186704,1.084182 0.256493,1.721965 0.06979,0.637783 0.212304,1.819811 0.316672,2.626594 0.104367,0.806792 0.239009,1.983363 0.299407,2.614764 0.0604,0.6314 0.145399,1.234452 0.188425,1.339687 0.07151,0.174896 0.131561,0.694915 0.458236,3.953956 0.05977,0.596332 0.170936,1.393398 0.247124,1.771299 0.07619,0.377892 0.138604,0.986699 0.138604,1.352507 0,0.365817 0.05494,0.831467 0.121837,1.034864 0.1172,0.356301 0.304015,1.857071 0.51496,4.132517 0.05529,0.596321 0.135321,1.170328 0.177573,1.275563 0.04226,0.105235 0.134634,0.793944 0.205195,1.53058 0.196227,2.048528 0.732142,4.810813 1.150771,5.93143 0.417167,1.116704 0.925299,2.239956 1.512332,3.342313 0.09611,0.180498 0.601626,0.775055 1.12364,1.321447 0.762171,0.797753 1.154921,1.092641 1.993748,1.49703 1.374318,0.662556 2.392716,0.897824 2.842645,0.657029 0.338509,-0.181166 3.750298,-3.489604 4.53107,-4.393948 1.725016,-1.998053 4.384088,-5.582726 4.876349,-6.573158 0.169436,-0.340904 0.41003,-0.731787 0.565769,-0.919435 0.241759,-0.291308 2.451495,-4.538204 2.451495,-4.7116 0,-0.104071 0.530318,-1.328882 0.837062,-1.933079 0.100825,-0.198616 0.183486,-0.436261 0.183486,-0.527789 0,-0.09154 0.08562,-0.330787 0.190397,-0.531731 0.104805,-0.200953 0.190883,-0.462423 0.191389,-0.58106 4.29e-4,-0.118636 0.05136,-0.246741 0.113444,-0.285103 0.06205,-0.03838 0.14194,-0.228443 0.177085,-0.422229 0.06509,-0.358964 0.305999,-1.086952 0.476974,-1.441305 0.05215,-0.107927 0.135121,-0.437883 0.184977,-0.73298 0.04982,-0.295097 0.143119,-0.56909 0.207172,-0.608674 0.06402,-0.03961 0.116409,-0.244345 0.116409,-0.455283 0,-0.210939 0.06364,-0.501988 0.141066,-0.646664 0.07745,-0.144666 0.18853,-0.557121 0.24712,-0.916475 0.0586,-0.359346 0.19894,-1.083822 0.31175,-1.609987 0.11279,-0.526175 0.25471,-1.387184 0.31519,-1.91335 0.0605,-0.526175 0.18209,-1.243435 0.2703,-1.594209 0.11507,-0.457603 0.16125,-2.061395 0.16327,-5.676417 0.002,-4.230033 -0.0318,-5.209739 -0.21259,-6.105057 -0.11844,-0.586536 -0.21556,-1.293542 -0.21556,-1.571027 0,-0.277485 -0.0534,-0.604323 -0.11887,-0.726571 -0.0654,-0.122246 -0.17766,-0.591807 -0.24959,-1.043734 -0.22808,-1.433194 -0.49158,-2.533038 -0.982079,-4.102921 -0.169292,-0.541833 -0.307798,-1.066481 -0.307798,-1.165571 0,-0.09909 -0.08562,-0.344597 -0.190397,-0.545544 -0.104802,-0.200946 -0.190883,-0.483113 -0.191379,-0.626931 -4.38e-4,-0.143818 -0.05011,-0.315627 -0.110491,-0.382275 -0.06033,-0.06664 -0.216179,-0.436896 -0.34627,-0.822754 -0.13008,-0.385859 -0.31034,-0.815084 -0.400523,-0.953468 -0.09021,-0.138381 -0.163767,-0.323178 -0.163767,-0.410884 0,-0.37838 -2.331226,-5.112409 -3.002955,-6.098153 -0.143254,-0.210221 -0.371774,-0.59765 -0.507563,-0.860735 -0.135779,-0.263085 -0.284455,-0.47846 -0.33048,-0.47846 -0.04601,0 -0.11711,-0.100181 -0.158336,-0.222955 -0.09297,-0.276789 -0.199301,-0.439759 -1.222788,-1.876352 -2.613036,-3.667745 -5.759748,-7.005453 -9.319127,-9.884404 -1.622205,-1.312102 -2.624193,-2.047514 -2.790355,-2.047514 -0.0673,0 -0.141364,-0.04258 -0.164751,-0.0952 -0.05788,-0.130248 -1.23521,-0.924859 -1.370271,-0.924859 -0.05952,0 -0.175015,-0.08078 -0.256987,-0.179546 -0.08197,-0.09877 -0.333093,-0.273713 -0.557875,-0.388687 -0.224777,-0.114979 -0.695914,-0.379308 -1.046693,-0.587472 -0.852996,-0.506194 -4.968555,-2.5437325 -5.13827,-2.5437325 -0.07384,0 -0.297113,-0.0808 -0.495724,-0.1795467 C 71.181679,8.7189302 70.875971,8.5837054 70.700582,8.5167854 70.525193,8.4498645 70.1645,8.3007658 69.899037,8.1858081 69.63357,8.0708512 69.338824,7.9771611 69.24399,7.9771611 c -0.09483,0 -0.337195,-0.086087 -0.538145,-0.1908912 C 68.504897,7.6814701 68.243421,7.5953912 68.124787,7.5948862 68.006155,7.5944538 67.87367,7.5367946 67.830311,7.4666397 67.786957,7.396483 67.597363,7.3369711 67.408575,7.3344454 67.219785,7.3319637 66.921518,7.2482529 66.746132,7.1479947 66.570742,7.0477327 66.244413,6.9635732 66.020548,6.9610476 65.796681,6.9585659 65.582713,6.9065735 65.545048,6.845626 65.507382,6.7846899 65.23115,6.696365 64.931433,6.6493103 64.631717,6.6022528 64.21408,6.5137847 64.003614,6.4524994 63.275138,6.240376 62.342259,6.0370065 61.580237,5.9247138 61.1593,5.8626895 60.183587,5.7160686 59.411873,5.5986693 58.129807,5.4036337 54.467504,5.2983919 51.463016,5.3135648 Z M 48.563146,38.973018 c -1.776704,0 -2.175049,0.08922 -2.781483,0.621506 -0.279957,0.245725 -0.720158,1.070958 -0.720158,1.350542 0,0.167435 0.26199,0.196316 1.774251,0.196316 1.668758,0 1.812364,-0.01989 2.423378,-0.336894 0.357255,-0.185351 0.64962,-0.408057 0.64962,-0.49474 0,-0.08668 0.08616,-0.228841 0.191385,-0.316177 0.105236,-0.08734 0.191384,-0.35249 0.191384,-0.589445 v -0.431108 z"
       style="fill:#ffe680;stroke-width:0.127556"
       id="path38" />
  </g>
</svg>
